ID : 224 (0xE0) 
Format : MPEG Video 
Format version : Version 2 
Format settings, BVOP : Yes 
Format settings, Matrix : Custom 
Duration : 2h 25mn 
Bit rate mode : Variable 
Bit rate : 483 Kbps 
Maximum bit rate : 450 Kbps 
Width : 352 pixels 
Height : 240 pixels 
Display aspect ratio : 3:2 
Frame rate : 29.970 fps 
Standard : NTSC 
Color space : YUV 
Bit depth : 8 bits 
Scan type : Progressive 
Compression mode : Lossy 
Bits/(Pixel*Frame) : 0.191 
Stream size : 501 MiB (82%) 
Writing library : TMPGEnc XPress / 4.2.3.193 4.2.3.193 

Audio 
ID : 192 (0xC0) 
Format : MPEG Audio 
Format version : Version 1 
Format profile : Layer 2 
Duration : 2h 25mn 
Bit rate mode : Constant 
Bit rate : 96.0 Kbps 
Channel(s) : 2 channels 
Sampling rate : 48.0 KHz 
Compression mode : Lossy 
Stream size : 99.7 MiB (16%)
